<svg width="128" height="128" viewBox="0 0 128 128" fill="none" xmlns="http://www.w3.org/2000/svg">
<rect width="128" height="128" fill="none"/>
<path d="M64 14.5C91.3381 14.5 113.5 36.6619 113.5 64C113.5 91.3381 91.3381 113.5 64 113.5C36.6619 113.5 14.5 91.3381 14.5 64C14.5 36.6619 36.6619 14.5 64 14.5Z" fill="#8F3624" stroke="#C6BBB9"/>
<path d="M76.5634 35.2717C86.94 40.1314 90.7225 55.3874 84.9708 69.9934C84.7816 70.4739 84.5833 70.948 84.3784 71.4153C84.2097 71.8968 84.0315 72.3788 83.8423 72.8593C77.9212 87.895 64.1392 96.5471 53.0602 92.1843C53.0587 92.1837 53.0576 92.1822 53.056 92.1816L54.0434 92.3689C57.0746 76.342 61.0563 69.355 65.0846 62.7607C69.1601 56.0894 73.3222 49.7599 76.5634 35.2717ZM74.6542 34.651C71.4792 48.9469 67.4353 55.077 63.3782 61.7182C59.2753 68.4345 55.2025 75.6131 52.1208 91.7766C41.75 86.9131 37.9708 71.6623 43.7209 57.0599C43.9101 56.5794 44.1075 56.1049 44.3125 55.6377C44.4811 55.1562 44.6603 54.6745 44.8495 54.194C50.6024 39.5849 63.7753 31.0039 74.6807 34.5303L74.6542 34.651Z" fill="#521F14"/>
</svg>
